<mxfile host="Electron" modified="2024-05-03T08:10:20.736Z" agent="Mozilla/5.0 (Windows NT 10.0; Win64; x64) AppleWebKit/537.36 (KHTML, like Gecko) draw.io/24.2.5 Chrome/120.0.6099.109 Electron/28.1.0 Safari/537.36" etag="nNeND5rQtwnwqXbW2aCp" version="24.2.5" type="device">
  <diagram name="Page-1" id="lHs7m4a3yzea5VdDa6BO">
    <mxGraphModel dx="843" dy="686" grid="1" gridSize="10" guides="1" tooltips="1" connect="1" arrows="1" fold="1" page="1" pageScale="1" pageWidth="850" pageHeight="1100" math="0" shadow="0">
      <root>
        <mxCell id="0" />
        <mxCell id="1" parent="0" />
        <mxCell id="BakLlUpYv1k-3jA4hOwA-9" style="edgeStyle=orthogonalEdgeStyle;rounded=0;orthogonalLoop=1;jettySize=auto;html=1;entryX=0;entryY=0.25;entryDx=0;entryDy=0;" edge="1" parent="1" source="BakLlUpYv1k-3jA4hOwA-1" target="BakLlUpYv1k-3jA4hOwA-5">
          <mxGeometry relative="1" as="geometry">
            <Array as="points">
              <mxPoint x="210" y="210" />
              <mxPoint x="210" y="275" />
            </Array>
          </mxGeometry>
        </mxCell>
        <mxCell id="BakLlUpYv1k-3jA4hOwA-1" value="User" style="shape=umlActor;verticalLabelPosition=bottom;verticalAlign=top;html=1;outlineConnect=0;" vertex="1" parent="1">
          <mxGeometry x="140" y="180" width="30" height="60" as="geometry" />
        </mxCell>
        <mxCell id="BakLlUpYv1k-3jA4hOwA-11" style="edgeStyle=orthogonalEdgeStyle;rounded=0;orthogonalLoop=1;jettySize=auto;html=1;exitX=0.25;exitY=0;exitDx=0;exitDy=0;entryX=0;entryY=0.25;entryDx=0;entryDy=0;" edge="1" parent="1" source="BakLlUpYv1k-3jA4hOwA-5" target="BakLlUpYv1k-3jA4hOwA-6">
          <mxGeometry relative="1" as="geometry" />
        </mxCell>
        <mxCell id="BakLlUpYv1k-3jA4hOwA-5" value="View" style="rounded=0;whiteSpace=wrap;html=1;" vertex="1" parent="1">
          <mxGeometry x="240" y="260" width="120" height="60" as="geometry" />
        </mxCell>
        <mxCell id="BakLlUpYv1k-3jA4hOwA-12" style="edgeStyle=orthogonalEdgeStyle;rounded=0;orthogonalLoop=1;jettySize=auto;html=1;exitX=0;exitY=0.75;exitDx=0;exitDy=0;entryX=0.5;entryY=0;entryDx=0;entryDy=0;" edge="1" parent="1" source="BakLlUpYv1k-3jA4hOwA-6" target="BakLlUpYv1k-3jA4hOwA-5">
          <mxGeometry relative="1" as="geometry" />
        </mxCell>
        <mxCell id="BakLlUpYv1k-3jA4hOwA-13" style="edgeStyle=orthogonalEdgeStyle;rounded=0;orthogonalLoop=1;jettySize=auto;html=1;exitX=1;exitY=0.25;exitDx=0;exitDy=0;entryX=0;entryY=0.25;entryDx=0;entryDy=0;" edge="1" parent="1" source="BakLlUpYv1k-3jA4hOwA-6" target="BakLlUpYv1k-3jA4hOwA-8">
          <mxGeometry relative="1" as="geometry" />
        </mxCell>
        <mxCell id="BakLlUpYv1k-3jA4hOwA-15" style="edgeStyle=orthogonalEdgeStyle;rounded=0;orthogonalLoop=1;jettySize=auto;html=1;exitX=1;exitY=1;exitDx=0;exitDy=0;entryX=0.75;entryY=0;entryDx=0;entryDy=0;" edge="1" parent="1" source="BakLlUpYv1k-3jA4hOwA-6" target="BakLlUpYv1k-3jA4hOwA-7">
          <mxGeometry relative="1" as="geometry" />
        </mxCell>
        <mxCell id="BakLlUpYv1k-3jA4hOwA-6" value="Controller" style="rounded=0;whiteSpace=wrap;html=1;" vertex="1" parent="1">
          <mxGeometry x="320" y="160" width="120" height="60" as="geometry" />
        </mxCell>
        <mxCell id="BakLlUpYv1k-3jA4hOwA-16" style="edgeStyle=orthogonalEdgeStyle;rounded=0;orthogonalLoop=1;jettySize=auto;html=1;exitX=0.25;exitY=0;exitDx=0;exitDy=0;entryX=0.5;entryY=1;entryDx=0;entryDy=0;" edge="1" parent="1" source="BakLlUpYv1k-3jA4hOwA-7" target="BakLlUpYv1k-3jA4hOwA-6">
          <mxGeometry relative="1" as="geometry" />
        </mxCell>
        <mxCell id="BakLlUpYv1k-3jA4hOwA-7" value="Model" style="rounded=0;whiteSpace=wrap;html=1;" vertex="1" parent="1">
          <mxGeometry x="390" y="260" width="120" height="60" as="geometry" />
        </mxCell>
        <mxCell id="BakLlUpYv1k-3jA4hOwA-14" style="edgeStyle=orthogonalEdgeStyle;rounded=0;orthogonalLoop=1;jettySize=auto;html=1;exitX=0;exitY=0.75;exitDx=0;exitDy=0;entryX=1;entryY=0.75;entryDx=0;entryDy=0;" edge="1" parent="1" source="BakLlUpYv1k-3jA4hOwA-8" target="BakLlUpYv1k-3jA4hOwA-6">
          <mxGeometry relative="1" as="geometry" />
        </mxCell>
        <mxCell id="BakLlUpYv1k-3jA4hOwA-8" value="Vault API" style="rounded=0;whiteSpace=wrap;html=1;" vertex="1" parent="1">
          <mxGeometry x="510" y="160" width="120" height="60" as="geometry" />
        </mxCell>
        <mxCell id="BakLlUpYv1k-3jA4hOwA-10" style="edgeStyle=orthogonalEdgeStyle;rounded=0;orthogonalLoop=1;jettySize=auto;html=1;exitX=0;exitY=0.75;exitDx=0;exitDy=0;" edge="1" parent="1" source="BakLlUpYv1k-3jA4hOwA-5" target="BakLlUpYv1k-3jA4hOwA-1">
          <mxGeometry relative="1" as="geometry">
            <mxPoint x="150" y="260" as="targetPoint" />
            <Array as="points">
              <mxPoint x="190" y="305" />
              <mxPoint x="190" y="240" />
            </Array>
          </mxGeometry>
        </mxCell>
      </root>
    </mxGraphModel>
  </diagram>
</mxfile>
